<?xml version="1.0" encoding="UTF-8" standalone="no"?>
<svg
   xmlns:dc="http://purl.org/dc/elements/1.1/"
   xmlns:cc="http://creativecommons.org/ns#"
   xmlns:rdf="http://www.w3.org/1999/02/22-rdf-syntax-ns#"
   xmlns:svg="http://www.w3.org/2000/svg"
   xmlns="http://www.w3.org/2000/svg"
   version="1.1"
   id="svg4202"
   width="19"
   height="19"
   viewBox="0 0 19 19">
  <metadata
     id="metadata4214">
    <rdf:RDF>
      <cc:Work
         rdf:about="">
        <dc:format>image/svg+xml</dc:format>
        <dc:type
           rdf:resource="http://purl.org/dc/dcmitype/StillImage" />
        <dc:title>circle-stroked-15.svg</dc:title>
      </cc:Work>
    </rdf:RDF>
  </metadata>
  <defs
     id="defs4212" />
  <title
     id="title4204">circle-stroked-15.svg</title>
  <path
     d="m 6.9395098,18.018377 c 3.2905002,0 5.9578862,-2.680412 5.9578862,-5.986983 0,-3.3065714 -2.667386,-5.9869837 -5.9578862,-5.9869837 -3.290501,0 -5.95788657,2.6804123 -5.95788657,5.9869837 0,3.306571 2.66738557,5.986983 5.95788657,5.986983 z m 0,-1.330387 c -2.5592697,0 -4.6338853,-2.084827 -4.6338853,-4.656596 0,-2.571769 2.0746156,-4.6565962 4.6338853,-4.6565962 2.5592694,0 4.6338842,2.0848272 4.6338842,4.6565962 0,2.571769 -2.0746148,4.656596 -4.6338842,4.656596 z"
     id="path4226"
     style="fill:#000000" />
  <rect
     id="rect4206"
     height="19"
     width="19"
     y="0"
     x="0"
     fill="none" />
  <path
     style="fill:#000000"
     id="path4208"
     d="m 6.9395098,18.018377 c 3.2905002,0 5.9578862,-2.680412 5.9578862,-5.986983 0,-3.3065714 -2.667386,-5.9869837 -5.9578862,-5.9869837 -3.290501,0 -5.95788657,2.6804123 -5.95788657,5.9869837 0,3.306571 2.66738557,5.986983 5.95788657,5.986983 z m 0,-1.330387 c -2.5592697,0 -4.6338853,-2.084827 -4.6338853,-4.656596 0,-2.571769 2.0746156,-4.6565962 4.6338853,-4.6565962 2.5592694,0 4.6338842,2.0848272 4.6338842,4.6565962 0,2.571769 -2.0746148,4.656596 -4.6338842,4.656596 z" />
  <path
     d="m 12.060491,12.955589 c 3.2905,0 5.957886,-2.680412 5.957886,-5.9869825 0,-3.306571 -2.667386,-5.98698328 -5.957886,-5.98698328 -3.290502,0 -5.9578875,2.68041228 -5.9578875,5.98698328 0,3.3065705 2.6673855,5.9869825 5.9578875,5.9869825 z m 0,-1.330387 c -2.5592707,0 -4.6338863,-2.084827 -4.6338863,-4.6565955 0,-2.5717686 2.0746156,-4.6565958 4.6338863,-4.6565958 2.559269,0 4.633884,2.0848272 4.633884,4.6565958 0,2.5717685 -2.074615,4.6565955 -4.633884,4.6565955 z"
     id="path4218"
     style="fill:#000000" />
</svg>
